# xmcd
#
# Track frame offsets:
#	150
#	24728
#	52885
#	73465
#	87169
#	96815
#	117489
#	135441
#	158373
#	180244
#	197370
#	216193
#	226127
#	245858
#	274341
#	286870
#
# Disc length: 4092 seconds
#
# Revision: 1
# Processed by: cddbd v1.5.2PL0 Copyright (c) Steve Scherf et al.
# Submitted via: EZCDAudioConverter 2.1.7.1
#
DISCID=dc0ffa10
DTITLE=Earth, Wind and Fire - Constellations
DYEAR=2011
DGENRE=
TTITLE0=Earth, Wind and Fire - Getaway [Live In Rio]
TTITLE1=Earth, Wind and Fire With The Emotions - Boogie Wonderland [Instrumental
TTITLE1=]
TTITLE2=Earth, Wind and Fire - Saturday Nite [Alternate Mix]
TTITLE3=Ramsey Lewis And Earth, Wind and Fire - Hot Dawgit
TTITLE4=Earth, Wind and Fire - Brazilian Rhyme (Aka Ponta De Areia) [Extended In
TTITLE4=terlude]
TTITLE5=Jennifer Holliday - I Am Love
TTITLE6=Earth, Wind and Fire - Let's Groove [Instrumental]
TTITLE7=Philip Bailey and Phil Collins - Easy Lover
TTITLE8=Barbra Streisand - Time Machine
TTITLE9=Earth, Wind and Fire - Kalimba Tree
TTITLE10=Maurice White - Stand By Me
TTITLE11=Earth, Wind and Fire - Eyes Of Hope
TTITLE12=Earth, Wind and Fire - Insensitive
TTITLE13=Earth, Wind and Fire - Turn On (The Beat Box) [12'' Mix]
TTITLE14=Neil Diamond - Stand Up For Love
TTITLE15=Earth, Wind and Fire - In The Stone [Live In Rio]
EXTD=
EXTT0=
EXTT1=
EXTT2=
EXTT3=
EXTT4=
EXTT5=
EXTT6=
EXTT7=
EXTT8=
EXTT9=
EXTT10=
EXTT11=
EXTT12=
EXTT13=
EXTT14=
EXTT15=
PLAYORDER=
